<?xml version="1.0" encoding="utf-8"?>
<!-- Generator: Adobe Illustrator 26.5.3, SVG Export Plug-In . SVG Version: 6.00 Build 0)  -->
<svg version="1.1" id="Layer_1" xmlns="http://www.w3.org/2000/svg" xmlns:xlink="http://www.w3.org/1999/xlink" x="0px" y="0px"
	 viewBox="0 0 200 200" style="enable-background:new 0 0 200 200;" xml:space="preserve">
<style type="text/css">
	.st0{fill-rule:evenodd;clip-rule:evenodd;fill:#0031CB;}
	.st1{fill-rule:evenodd;clip-rule:evenodd;fill:#FFFFFF;}
	.st2{filter:url(#Adobe_OpacityMaskFilter);}
	.st3{mask:url(#mask-2_00000034801534416642957070000014999374162861279677_);fill-rule:evenodd;clip-rule:evenodd;fill:#FFFFFF;}
	.st4{filter:url(#Adobe_OpacityMaskFilter_00000151534222765504317240000017479989726929905025_);}
	.st5{mask:url(#mask-2_00000065787581578372904770000017803895443488955821_);fill-rule:evenodd;clip-rule:evenodd;fill:#FFFFFF;}
	.st6{filter:url(#Adobe_OpacityMaskFilter_00000019636950125951062860000006856633470437504146_);}
	.st7{mask:url(#mask-2_00000118388642097694832920000016612784735417592484_);fill-rule:evenodd;clip-rule:evenodd;fill:#FFFFFF;}
	.st8{filter:url(#Adobe_OpacityMaskFilter_00000151520698762038408660000012324378786160030592_);}
	.st9{mask:url(#mask-2_00000164480630421523023290000015162196118673134211_);fill-rule:evenodd;clip-rule:evenodd;fill:#FFFFFF;}
	.st10{filter:url(#Adobe_OpacityMaskFilter_00000055696184816651684970000002658948640295588236_);}
	.st11{mask:url(#mask-2_00000062167150889374653010000018432370361106726318_);fill-rule:evenodd;clip-rule:evenodd;fill:#FFFFFF;}
	.st12{filter:url(#Adobe_OpacityMaskFilter_00000115494531834334112260000012221982667079552407_);}
	.st13{mask:url(#mask-2_00000163788674854745708100000007703229990679928981_);fill-rule:evenodd;clip-rule:evenodd;fill:#FFFFFF;}
	.st14{filter:url(#Adobe_OpacityMaskFilter_00000126320878077877990160000009288941039895161226_);}
	.st15{mask:url(#mask-2_00000131361996722628159020000013812254114181665714_);fill-rule:evenodd;clip-rule:evenodd;fill:#FFFFFF;}
	.st16{filter:url(#Adobe_OpacityMaskFilter_00000050634091109657944550000018342429779315526567_);}
	.st17{mask:url(#mask-2_00000111171214983786322240000004416643553874230967_);fill-rule:evenodd;clip-rule:evenodd;fill:#FFFFFF;}
	.st18{filter:url(#Adobe_OpacityMaskFilter_00000115493837034009695430000014772334626372028581_);}
	.st19{mask:url(#mask-2_00000166676423299037535830000015414929544273948040_);fill-rule:evenodd;clip-rule:evenodd;fill:#FFFFFF;}
	.st20{filter:url(#Adobe_OpacityMaskFilter_00000070825427238148877670000007638904528913429655_);}
	.st21{mask:url(#mask-2_00000007421893198960748560000001256469955167070100_);fill-rule:evenodd;clip-rule:evenodd;fill:#FFFFFF;}
	.st22{filter:url(#Adobe_OpacityMaskFilter_00000096056079638129519170000008311825378488865706_);}
	.st23{mask:url(#mask-2_00000106126314181657241980000008380327978059815055_);fill-rule:evenodd;clip-rule:evenodd;fill:#FFFFFF;}
	.st24{filter:url(#Adobe_OpacityMaskFilter_00000136411804025498443170000003551308119851048610_);}
	.st25{mask:url(#mask-2_00000152953020200714050200000015443211775364005006_);fill-rule:evenodd;clip-rule:evenodd;fill:#FFFFFF;}
	.st26{filter:url(#Adobe_OpacityMaskFilter_00000165234103108568109910000006094234516190224297_);}
	.st27{mask:url(#mask-2_00000180335893732634085470000001323628590795524242_);fill-rule:evenodd;clip-rule:evenodd;fill:#FFFFFF;}
</style>
<g id="NEXTGEN---Concepten-V2">
	<g id="NEXTGEN---1.1-Desktop---Home-V2" transform="translate(-20, -20)">
		<g id="Group-19" transform="translate(20, 20)">
			<polygon id="Fill-1" class="st0" points="0,200 200,200 200,0 0,0 			"/>
			<g id="Group-18">
				<path id="Fill-2" class="st1" d="M41.2,167.5h-2.1v-22.3h2.1v7.2c1.1-0.6,2.2-1.1,3.2-1.4c1-0.3,2-0.4,3-0.4
					c1.8,0,3.2,0.5,4.1,1.4c0.9,0.9,1.4,2.3,1.4,4.1v11.5h-2.1v-11.2c0-1.3-0.3-2.2-1-2.9c-0.7-0.6-1.7-0.9-3.1-0.9
					c-0.9,0-1.8,0.1-2.8,0.4s-1.9,0.6-2.8,1.1L41.2,167.5L41.2,167.5z"/>
				<g id="Clip-5">
				</g>
				<defs>
					<filter id="Adobe_OpacityMaskFilter" filterUnits="userSpaceOnUse" x="57.9" y="145.2" width="2.3" height="22.3">
						<feColorMatrix  type="matrix" values="1 0 0 0 0  0 1 0 0 0  0 0 1 0 0  0 0 0 1 0"/>
					</filter>
				</defs>
				
					<mask maskUnits="userSpaceOnUse" x="57.9" y="145.2" width="2.3" height="22.3" id="mask-2_00000034801534416642957070000014999374162861279677_">
					<g class="st2">
						<polygon id="path-1_00000102546256744347577500000001132576578325204870_" class="st1" points="0,200 200,200 200,0 0,0 
													"/>
					</g>
				</mask>
				<path id="Fill-4" class="st3" d="M58,167.5h2.1v-16.6H58V167.5z M57.9,147.5h2.3v-2.3h-2.3V147.5z"/>
				<defs>
					
						<filter id="Adobe_OpacityMaskFilter_00000132070141057573718170000016926533140153583016_" filterUnits="userSpaceOnUse" x="64.5" y="150.6" width="14" height="22.3">
						<feColorMatrix  type="matrix" values="1 0 0 0 0  0 1 0 0 0  0 0 1 0 0  0 0 0 1 0"/>
					</filter>
				</defs>
				
					<mask maskUnits="userSpaceOnUse" x="64.5" y="150.6" width="14" height="22.3" id="mask-2_00000065787581578372904770000017803895443488955821_">
					<g style="filter:url(#Adobe_OpacityMaskFilter_00000132070141057573718170000016926533140153583016_);">
						<polygon id="path-1_00000072278590903482405170000017703992933263607961_" class="st1" points="0,200 200,200 200,0 0,0 
													"/>
					</g>
				</mask>
				<path id="Fill-6" class="st5" d="M72.5,152.5c-2.3,0-3.9,0.4-4.7,1.3c-0.8,0.9-1.2,2.4-1.2,4.7c0,2.3,0.3,3.7,1,4.6
					c0.7,0.9,2,1.3,3.8,1.3c0.8,0,1.7-0.1,2.6-0.4c0.9-0.2,1.7-0.6,2.4-1v-10.1c-0.6-0.1-1.2-0.2-1.9-0.3
					C73.9,152.5,73.2,152.5,72.5,152.5L72.5,152.5z M71.9,172.9c-1.1,0-2.1-0.1-3.1-0.2c-1-0.1-1.7-0.3-2.3-0.6v-1.9
					c0.5,0.2,1.2,0.4,2.2,0.5c1,0.1,2,0.2,2.9,0.2c1.8,0,3.1-0.4,3.8-1.1c0.7-0.7,1.1-2.1,1.1-4v-1.1c-0.8,0.5-1.7,0.9-2.7,1.2
					c-1,0.3-2,0.4-3,0.4c-2.2,0-3.8-0.6-4.8-1.9c-1-1.2-1.5-3.2-1.5-6c0-2.8,0.6-4.9,1.8-6.1c1.2-1.2,3.3-1.8,6.2-1.8
					c1,0,2.1,0.1,3.2,0.2c1.1,0.1,2,0.3,2.9,0.4v14.1c0,2.8-0.5,4.8-1.5,5.9C76.1,172.4,74.4,172.9,71.9,172.9L71.9,172.9z"/>
				<defs>
					
						<filter id="Adobe_OpacityMaskFilter_00000118395216167369511260000009789707899027969153_" filterUnits="userSpaceOnUse" x="83.7" y="145.2" width="13.9" height="22.3">
						<feColorMatrix  type="matrix" values="1 0 0 0 0  0 1 0 0 0  0 0 1 0 0  0 0 0 1 0"/>
					</filter>
				</defs>
				
					<mask maskUnits="userSpaceOnUse" x="83.7" y="145.2" width="13.9" height="22.3" id="mask-2_00000118388642097694832920000016612784735417592484_">
					<g style="filter:url(#Adobe_OpacityMaskFilter_00000118395216167369511260000009789707899027969153_);">
						<polygon id="path-1_00000127762540918170821050000005792654658236561333_" class="st1" points="0,200 200,200 200,0 0,0 
													"/>
					</g>
				</mask>
				<path id="Fill-7" class="st7" d="M85.8,167.5h-2.1v-22.3h2.1v7.2c1.1-0.6,2.2-1.1,3.2-1.4c1-0.3,2-0.4,3-0.4
					c1.8,0,3.2,0.5,4.1,1.4c0.9,0.9,1.4,2.3,1.4,4.1v11.5h-2.1v-11.2c0-1.3-0.3-2.2-1-2.9c-0.7-0.6-1.7-0.9-3.1-0.9
					c-0.9,0-1.8,0.1-2.8,0.4c-0.9,0.3-1.9,0.6-2.8,1.1L85.8,167.5L85.8,167.5z"/>
				<defs>
					
						<filter id="Adobe_OpacityMaskFilter_00000072989298301659720560000007798807361185333133_" filterUnits="userSpaceOnUse" x="100.6" y="146.8" width="11.2" height="20.9">
						<feColorMatrix  type="matrix" values="1 0 0 0 0  0 1 0 0 0  0 0 1 0 0  0 0 0 1 0"/>
					</filter>
				</defs>
				
					<mask maskUnits="userSpaceOnUse" x="100.6" y="146.8" width="11.2" height="20.9" id="mask-2_00000164480630421523023290000015162196118673134211_">
					<g style="filter:url(#Adobe_OpacityMaskFilter_00000072989298301659720560000007798807361185333133_);">
						<polygon id="path-1_00000130629740877193286290000011497772907697080493_" class="st1" points="0,200 200,200 200,0 0,0 
													"/>
					</g>
				</mask>
				<path id="Fill-8" class="st9" d="M111.8,165.5v1.8c-0.4,0.1-0.9,0.2-1.5,0.3c-0.6,0.1-1.1,0.1-1.7,0.1c-2,0-3.4-0.4-4.2-1.3
					c-0.8-0.9-1.2-2.4-1.2-4.6v-9.1h-2.6v-1.8h2.7l0.4-4.1h1.7v4.1h6.3v1.8h-6.3v9c0,1.6,0.3,2.7,0.8,3.2c0.6,0.6,1.5,0.9,2.9,0.9
					c0.4,0,0.9,0,1.5-0.1C111.1,165.6,111.5,165.6,111.8,165.5L111.8,165.5z"/>
				<defs>
					
						<filter id="Adobe_OpacityMaskFilter_00000008127315258258489250000014002799259685169563_" filterUnits="userSpaceOnUse" x="114" y="150.6" width="13.7" height="17.1">
						<feColorMatrix  type="matrix" values="1 0 0 0 0  0 1 0 0 0  0 0 1 0 0  0 0 0 1 0"/>
					</filter>
				</defs>
				
					<mask maskUnits="userSpaceOnUse" x="114" y="150.6" width="13.7" height="17.1" id="mask-2_00000062167150889374653010000018432370361106726318_">
					<g style="filter:url(#Adobe_OpacityMaskFilter_00000008127315258258489250000014002799259685169563_);">
						<polygon id="path-1_00000070103682351091283480000014731422342268648859_" class="st1" points="0,200 200,200 200,0 0,0 
													"/>
					</g>
				</mask>
				<path id="Fill-9" class="st11" d="M125.8,157.2c0-1.7-0.4-2.9-1.1-3.6c-0.7-0.7-1.9-1.1-3.5-1.1c-1.8,0-3.1,0.4-3.9,1.3
					c-0.8,0.9-1.2,2.3-1.2,4.3h9.6c0-0.1,0-0.3,0-0.4C125.8,157.5,125.8,157.4,125.8,157.2L125.8,157.2z M127,164.8v1.8
					c-0.6,0.3-1.4,0.6-2.5,0.8c-1.1,0.2-2.2,0.3-3.3,0.3c-2.6,0-4.4-0.7-5.5-2c-1.1-1.3-1.7-3.6-1.7-6.6c0-3.1,0.6-5.1,1.7-6.5
					c1.1-1.3,3-2,5.5-2c2.3,0,4,0.5,5,1.6c1,1.1,1.5,2.8,1.5,5.3c0,0.4,0,0.8,0,1.1c0,0.4-0.1,0.8-0.1,1.3h-11.4
					c0,2.1,0.4,3.7,1.2,4.6c0.8,0.9,2.2,1.4,4.1,1.4c0.9,0,1.9-0.1,2.9-0.3C125.5,165.3,126.3,165.1,127,164.8L127,164.8z"/>
				<defs>
					
						<filter id="Adobe_OpacityMaskFilter_00000176007199568093330890000008552755720902966432_" filterUnits="userSpaceOnUse" x="131.2" y="150.6" width="12.2" height="17.1">
						<feColorMatrix  type="matrix" values="1 0 0 0 0  0 1 0 0 0  0 0 1 0 0  0 0 0 1 0"/>
					</filter>
				</defs>
				
					<mask maskUnits="userSpaceOnUse" x="131.2" y="150.6" width="12.2" height="17.1" id="mask-2_00000163788674854745708100000007703229990679928981_">
					<g style="filter:url(#Adobe_OpacityMaskFilter_00000176007199568093330890000008552755720902966432_);">
						<polygon id="path-1_00000048461561765651673010000009258497819184840834_" class="st1" points="0,200 200,200 200,0 0,0 
													"/>
					</g>
				</mask>
				<path id="Fill-10" class="st13" d="M143.4,164.7v1.8c-0.6,0.4-1.4,0.7-2.5,0.9c-1.1,0.2-2.2,0.4-3.4,0.4c-2.3,0-4-0.6-4.9-1.9
					c-0.9-1.3-1.4-3.5-1.4-6.7s0.6-5.3,1.8-6.6c1.2-1.3,3.3-2,6.2-2c0.6,0,1.2,0,1.7,0c0.5,0,1.2,0.1,2,0.2v1.9
					c-1.1-0.1-1.9-0.2-2.3-0.2c-0.4,0-0.9,0-1.5,0c-2.3,0-3.8,0.5-4.7,1.5c-0.8,1-1.3,2.7-1.3,5.2c0,2.5,0.3,4.3,1,5.2
					c0.7,0.9,1.9,1.4,3.7,1.4c1,0,1.9-0.1,2.9-0.3C141.9,165.3,142.8,165,143.4,164.7L143.4,164.7z"/>
				<defs>
					
						<filter id="Adobe_OpacityMaskFilter_00000025444009415844470590000013972085881984717486_" filterUnits="userSpaceOnUse" x="147.2" y="145.2" width="13.9" height="22.3">
						<feColorMatrix  type="matrix" values="1 0 0 0 0  0 1 0 0 0  0 0 1 0 0  0 0 0 1 0"/>
					</filter>
				</defs>
				
					<mask maskUnits="userSpaceOnUse" x="147.2" y="145.2" width="13.9" height="22.3" id="mask-2_00000131361996722628159020000013812254114181665714_">
					<g style="filter:url(#Adobe_OpacityMaskFilter_00000025444009415844470590000013972085881984717486_);">
						<polygon id="path-1_00000107566356386822467930000011137020446003238585_" class="st1" points="0,200 200,200 200,0 0,0 
													"/>
					</g>
				</mask>
				<path id="Fill-11" class="st15" d="M149.3,167.5h-2.1v-22.3h2.1v7.2c1.1-0.6,2.2-1.1,3.2-1.4c1-0.3,2-0.4,3-0.4
					c1.8,0,3.2,0.5,4.1,1.4c0.9,0.9,1.4,2.3,1.4,4.1v11.5H159v-11.2c0-1.3-0.3-2.2-1-2.9c-0.7-0.6-1.7-0.9-3.1-0.9
					c-0.9,0-1.8,0.1-2.8,0.4s-1.9,0.6-2.8,1.1L149.3,167.5L149.3,167.5z"/>
				<defs>
					
						<filter id="Adobe_OpacityMaskFilter_00000003817554116876461120000012654545423619640763_" filterUnits="userSpaceOnUse" x="39.2" y="33.2" width="39.4" height="45.7">
						<feColorMatrix  type="matrix" values="1 0 0 0 0  0 1 0 0 0  0 0 1 0 0  0 0 0 1 0"/>
					</filter>
				</defs>
				
					<mask maskUnits="userSpaceOnUse" x="39.2" y="33.2" width="39.4" height="45.7" id="mask-2_00000111171214983786322240000004416643553874230967_">
					<g style="filter:url(#Adobe_OpacityMaskFilter_00000003817554116876461120000012654545423619640763_);">
						<polygon id="path-1_00000106107288686872412870000014119253767469890707_" class="st1" points="0,200 200,200 200,0 0,0 
													"/>
					</g>
				</mask>
				<polygon id="Fill-12" class="st17" points="78.6,33.2 78.6,78.8 67.8,78.8 49.7,52.5 49.7,78.8 39.2,78.8 39.2,33.2 49.9,33.2 
					68,60.5 68,33.2 				"/>
				<defs>
					
						<filter id="Adobe_OpacityMaskFilter_00000038392922509220870550000016901363986109019046_" filterUnits="userSpaceOnUse" x="81.3" y="33.2" width="43.5" height="45.7">
						<feColorMatrix  type="matrix" values="1 0 0 0 0  0 1 0 0 0  0 0 1 0 0  0 0 0 1 0"/>
					</filter>
				</defs>
				
					<mask maskUnits="userSpaceOnUse" x="81.3" y="33.2" width="43.5" height="45.7" id="mask-2_00000166676423299037535830000015414929544273948040_">
					<g style="filter:url(#Adobe_OpacityMaskFilter_00000038392922509220870550000016901363986109019046_);">
						<polygon id="path-1_00000009552684010779478010000000503022515791444624_" class="st1" points="0,200 200,200 200,0 0,0 
													"/>
					</g>
				</mask>
				<polygon id="Fill-13" class="st19" points="109.7,55.1 124.9,78.8 111.1,78.8 102.2,64.2 93.7,78.8 81.3,78.8 96.3,55.5 
					82.2,33.2 96,33.2 103.6,46.2 111.3,33.2 123.4,33.2 109.7,55.1 				"/>
				<defs>
					
						<filter id="Adobe_OpacityMaskFilter_00000058581510622304917340000005646298490245736601_" filterUnits="userSpaceOnUse" x="124.8" y="33.2" width="36.2" height="45.7">
						<feColorMatrix  type="matrix" values="1 0 0 0 0  0 1 0 0 0  0 0 1 0 0  0 0 0 1 0"/>
					</filter>
				</defs>
				
					<mask maskUnits="userSpaceOnUse" x="124.8" y="33.2" width="36.2" height="45.7" id="mask-2_00000007421893198960748560000001256469955167070100_">
					<g style="filter:url(#Adobe_OpacityMaskFilter_00000058581510622304917340000005646298490245736601_);">
						<polygon id="path-1_00000126291700983823821890000012289850046351823793_" class="st1" points="0,200 200,200 200,0 0,0 
													"/>
					</g>
				</mask>
				<polygon id="Fill-14" class="st21" points="161,33.2 161,43.4 148.5,43.4 148.5,78.8 137.3,78.8 137.3,43.4 124.8,43.4 
					124.8,33.2 161,33.2 				"/>
				<defs>
					
						<filter id="Adobe_OpacityMaskFilter_00000064325008834456026770000005552423636475019147_" filterUnits="userSpaceOnUse" x="38.9" y="89.5" width="36.8" height="47">
						<feColorMatrix  type="matrix" values="1 0 0 0 0  0 1 0 0 0  0 0 1 0 0  0 0 0 1 0"/>
					</filter>
				</defs>
				
					<mask maskUnits="userSpaceOnUse" x="38.9" y="89.5" width="36.8" height="47" id="mask-2_00000106126314181657241980000008380327978059815055_">
					<g style="filter:url(#Adobe_OpacityMaskFilter_00000064325008834456026770000005552423636475019147_);">
						<polygon id="path-1_00000161624880865410307090000000675226840272776892_" class="st1" points="0,200 200,200 200,0 0,0 
													"/>
					</g>
				</mask>
				<path id="Fill-15" class="st23" d="M69.9,117.2H58v-5.5h17.7v22c-1.4,0.6-3.8,1.3-7.3,1.9c-3.5,0.6-6.7,0.9-9.5,0.9
					c-7.5,0-12.7-1.8-15.6-5.3c-2.9-3.5-4.3-9.6-4.3-18.1c0-8.1,1.7-14,5.2-17.8c3.4-3.8,8.9-5.7,16.2-5.7c2.5,0,4.9,0.1,7.2,0.2
					c2.3,0.1,4.2,0.3,5.6,0.5v5.5c-1.9-0.2-4-0.3-6.3-0.4c-2.3-0.1-4.5-0.1-6.6-0.1c-5.5,0-9.4,1.4-11.7,4.1
					c-2.3,2.7-3.4,7.3-3.4,13.8c0,3.2,0.2,5.9,0.5,8c0.4,2.2,1,3.9,1.8,5.2c1,1.7,2.4,2.8,4.1,3.5c1.8,0.7,4.4,1.1,7.9,1.1
					c1.4,0,3-0.1,4.8-0.3c1.8-0.2,3.7-0.5,5.5-0.9L69.9,117.2L69.9,117.2z"/>
				<defs>
					
						<filter id="Adobe_OpacityMaskFilter_00000149372340704212366670000013030823832574389909_" filterUnits="userSpaceOnUse" x="84.3" y="90.3" width="30.3" height="45.7">
						<feColorMatrix  type="matrix" values="1 0 0 0 0  0 1 0 0 0  0 0 1 0 0  0 0 0 1 0"/>
					</filter>
				</defs>
				
					<mask maskUnits="userSpaceOnUse" x="84.3" y="90.3" width="30.3" height="45.7" id="mask-2_00000152953020200714050200000015443211775364005006_">
					<g style="filter:url(#Adobe_OpacityMaskFilter_00000149372340704212366670000013030823832574389909_);">
						<polygon id="path-1_00000039829534406266685500000010161537096292049792_" class="st1" points="0,200 200,200 200,0 0,0 
													"/>
					</g>
				</mask>
				<polygon id="Fill-16" class="st25" points="114.6,130.1 114.6,135.9 84.3,135.9 84.3,90.3 113.9,90.3 113.9,95.9 90.5,95.9 
					90.5,109.8 111.2,109.8 111.2,115.3 90.5,115.3 90.5,130.1 				"/>
				<defs>
					
						<filter id="Adobe_OpacityMaskFilter_00000012449163562852787850000015574658550309356672_" filterUnits="userSpaceOnUse" x="122.4" y="90.3" width="37.4" height="45.7">
						<feColorMatrix  type="matrix" values="1 0 0 0 0  0 1 0 0 0  0 0 1 0 0  0 0 0 1 0"/>
					</filter>
				</defs>
				
					<mask maskUnits="userSpaceOnUse" x="122.4" y="90.3" width="37.4" height="45.7" id="mask-2_00000180335893732634085470000001323628590795524242_">
					<g style="filter:url(#Adobe_OpacityMaskFilter_00000012449163562852787850000015574658550309356672_);">
						<polygon id="path-1_00000059281443061621254840000016642854621137773220_" class="st1" points="0,200 200,200 200,0 0,0 
													"/>
					</g>
				</mask>
				<polygon id="Fill-17" class="st27" points="159.8,90.3 159.8,135.9 153.5,135.9 128.2,100.4 128.2,135.9 122.4,135.9 
					122.4,90.3 128.7,90.3 153.9,126.3 153.9,90.3 				"/>
			</g>
		</g>
	</g>
</g>
</svg>
